<?xml version="1.0" encoding="UTF-8" standalone="no"?>
<!-- Created with Inkscape (http://www.inkscape.org/) -->

<svg
   xmlns:dc="http://purl.org/dc/elements/1.1/"
   xmlns:cc="http://creativecommons.org/ns#"
   xmlns:rdf="http://www.w3.org/1999/02/22-rdf-syntax-ns#"
   xmlns:svg="http://www.w3.org/2000/svg"
   xmlns="http://www.w3.org/2000/svg"
   xmlns:sodipodi="http://sodipodi.sourceforge.net/DTD/sodipodi-0.dtd"
   xmlns:inkscape="http://www.inkscape.org/namespaces/inkscape"
   width="24"
   height="24"
   viewBox="0 0 6.3499999 6.3500002"
   version="1.1"
   id="svg8"
   inkscape:version="0.92.4 (5da689c313, 2019-01-14)"
   sodipodi:docname="facebook-auth-icon.svg">
  <defs
     id="defs2" />
  <sodipodi:namedview
     id="base"
     pagecolor="#ffffff"
     bordercolor="#666666"
     borderopacity="1.0"
     inkscape:pageopacity="0.0"
     inkscape:pageshadow="2"
     inkscape:zoom="15.839192"
     inkscape:cx="16.641735"
     inkscape:cy="15.299716"
     inkscape:document-units="px"
     inkscape:current-layer="layer1"
     showgrid="false"
     units="px"
     inkscape:window-width="1600"
     inkscape:window-height="837"
     inkscape:window-x="-8"
     inkscape:window-y="-8"
     inkscape:window-maximized="1" />
  <metadata
     id="metadata5">
    <rdf:RDF>
      <cc:Work
         rdf:about="">
        <dc:format>image/svg+xml</dc:format>
        <dc:type
           rdf:resource="http://purl.org/dc/dcmitype/StillImage" />
        <dc:title></dc:title>
      </cc:Work>
    </rdf:RDF>
  </metadata>
  <g
     inkscape:label="Layer 1"
     inkscape:groupmode="layer"
     id="layer1"
     transform="translate(0,-290.64999)">
    <path
       inkscape:connector-curvature="0"
       style="fill:#3b5998;fill-rule:evenodd;stroke-width:0.34925002"
       d="m 5.971445,296.96824 c 0.1920874,0 0.3468051,-0.15506 0.3468051,-0.34681 v -5.59288 A 0.346456,0.346456 0 0 0 5.971445,290.68174 H 0.37855517 a 0.346456,0.346456 0 0 0 -0.34680522,0.34681 v 5.59288 c 0,0.1921 0.155067,0.34681 0.34680522,0.34681 z m -1.6020099,0 v -2.43428 h 0.817245 l 0.1222373,-0.9489 H 4.3694351 v -0.60595 c 0,-0.27451 0.076137,-0.46171 0.4700906,-0.46171 h 0.5022214 v -0.84868 a 6.6060639,6.6060639 0 0 0 -0.732028,-0.0377 c -0.7239952,0 -1.2202797,0.44249 -1.2202797,1.2538 v 0.70025 H 2.5700989 v 0.9489 h 0.8193405 v 2.43428 z"
       id="path2" />
  </g>
</svg>
